<svg xmlns="http://www.w3.org/2000/svg" viewBox="0 0 24 24" fill="none" stroke="currentColor" stroke-width="2" stroke-linecap="round" stroke-linejoin="round">
  <path d="M22.54 6.42c-.77-.29-1.6-.48-2.46-.56-1.43-.12-2.83.18-4.1.73-1.27.55-2.4 1.36-3.34 2.36-.94-1-2.07-1.81-3.34-2.36-1.27-.55-2.67-.85-4.1-.73-.86.08-1.69.27-2.46.56C.46 7.12 0 8.09 0 9.1v5.8c0 1.01.46 2.08 1.08 2.68.77.29 1.6.48 2.46.56 1.43.12 2.83-.18 4.1-.73 1.27-.55 2.4-1.36 3.34-2.36.94 1 2.07 1.81 3.34 2.36 1.27.55 2.67.85 4.1.73.86-.08 1.69-.27 2.46-.56C23.54 17.88 24 16.91 24 15.9v-5.8c0-1.01-.46-2.08-1.08-2.68zM9 15V9l6 3-6 3z"/>
</svg>